<svg id="Layer_1" data-name="Layer 1" xmlns="http://www.w3.org/2000/svg" viewBox="0 0 108 133.2"><defs><style>.cls-1{fill:#009245;}.cls-2{fill:#39b54a;}.cls-3{fill:#89db90;}</style></defs><title>musicapplogo</title><path class="cls-1" d="M54,108a54,54,0,1,1,54-54A54.06,54.06,0,0,1,54,108ZM54,4a50,50,0,1,0,50,50A50.06,50.06,0,0,0,54,4Z"/><rect class="cls-2" x="37.5" y="24.5" width="7" height="59" rx="3.5"/><rect class="cls-1" x="24" y="46" width="7" height="38" rx="3.5"/><rect class="cls-2" x="64.5" y="54" width="7" height="29.5" rx="3.5"/><rect class="cls-1" x="78" y="37" width="7" height="47" rx="3.5"/><rect class="cls-3" x="51" y="37" width="7" height="47" rx="3.5"/><path class="cls-1" d="M7.82,120l3.72,8.18L15.25,120h2.67V133H15.19v-6.67L12,133H10.88L7.73,126.2V133H5V120Z"/><path class="cls-1" d="M23.29,120v8.08a2.25,2.25,0,0,0,2.35,2.45A2.28,2.28,0,0,0,28,128.12V120h2.75v8.08c0,3.31-2.32,4.95-5.12,4.95s-5.08-1.64-5.08-4.95V120Z"/><path class="cls-1" d="M34.63,129.11a5,5,0,0,0,3.83,1.63c1.68,0,2.57-.64,2.57-1.67,0-.82-.56-1.1-1.25-1.32-1-.34-2.52-.56-3.84-1.1s-2.41-1.35-2.41-3c0-2.18,1.72-3.71,4.83-3.71a6.14,6.14,0,0,1,5,2l-1.9,1.66a4.34,4.34,0,0,0-3.2-1.29c-1.27,0-2.09.42-2.09,1.18s.54.9,1,1.08c1.06.4,2.63.56,3.94,1.07a3.43,3.43,0,0,1,2.54,3.4c0,2.67-2.23,4.05-5.38,4.05a7,7,0,0,1-5.68-2.34Z"/><path class="cls-1" d="M48.53,120V133H45.78V120Z"/><path class="cls-1" d="M60.14,124.13a3.22,3.22,0,0,0-3-1.81c-2,0-3.3,1.4-3.3,4.2s1.25,4.18,3.3,4.18A3.22,3.22,0,0,0,60.07,129l2,1.45a5.41,5.41,0,0,1-4.88,2.71c-3.45,0-6-2.29-6-6.7s2.56-6.7,6.05-6.7a5.17,5.17,0,0,1,4.91,2.85Z"/><path class="cls-3" d="M75.93,120,80.73,133H77.84L77,130.51H72L71.17,133H68.3L73,120Zm-3.1,8.08h3.33l-1.68-4.8Z"/><path class="cls-3" d="M88,120c2.81,0,4.67,1.4,4.67,4.13s-1.86,4.1-4.67,4.1h-2.8V133H82.44V120Zm-2.82,5.86H88c1.21,0,2-.54,2-1.72s-.82-1.68-2-1.68H85.14Z"/><path class="cls-3" d="M100.33,120c2.8,0,4.67,1.4,4.67,4.13s-1.87,4.1-4.67,4.1h-2.8V133H94.8V120Zm-2.82,5.86h2.88c1.21,0,2-.54,2-1.72s-.82-1.68-2-1.68H97.51Z"/></svg>